<svg id="圖層_1" data-name="圖層 1" xmlns="http://www.w3.org/2000/svg" xmlns:xlink="http://www.w3.org/1999/xlink" viewBox="0 0 1920 631"><defs><style>.cls-1,.cls-5,.cls-6,.cls-7{fill:none;}.cls-2{clip-path:url(#clip-path);}.cls-3{font-size:60px;fill:#408a95;font-family:Bahnschrift, Bahnschrift;}.cls-4{font-size:30px;fill:#666;font-family:Corbel-Bold, Corbel;font-weight:700;letter-spacing:0.12em;}.cls-5{stroke:#6da5a0;stroke-width:3px;}.cls-5,.cls-6,.cls-7,.cls-8{stroke-miterlimit:10;}.cls-6{stroke:#f93;stroke-width:10px;}.cls-7{stroke:#666;stroke-width:2px;}.cls-8{fill:#fff;stroke:#bf211d;stroke-width:8px;}</style><clipPath id="clip-path"><rect class="cls-1" x="172.42" y="1" width="1600.48" height="630"/></clipPath></defs><title>1221-全定稿原始檔</title><g class="cls-2"><text class="cls-3" transform="translate(952 151.34) scale(1.07 1)">Site-Specific<tspan x="0" y="72">Modification and Conjugation</tspan></text><text class="cls-4" transform="translate(953.99 326.5)">Controlable Drug-Antibody ratio</text><text class="cls-4" transform="translate(953.93 472.09) rotate(0.09)">Immunogenicity masking</text><text class="cls-4" transform="translate(953.99 530.5)">Single conjugation site modification</text><polygon class="cls-5" points="757.65 384 774.8 401.18 763.76 422.8 739.79 418.98 736.01 395 757.65 384"/><polygon class="cls-5" points="799.25 439.73 776.74 440.91 764.62 421.91 775.01 401.72 797.52 400.53 809.64 419.54 799.25 439.73"/><polygon class="cls-5" points="726.34 286.31 730.3 262.36 708.75 251.19 691.47 268.23 702.34 289.93 726.34 286.31"/><polygon class="cls-5" points="727.79 216.78 708.79 228.91 709.98 251.41 730.17 261.8 749.17 249.69 747.99 227.18 727.79 216.78"/><line class="cls-6" x1="187.52" y1="206.2" x2="393.35" y2="312.11"/><line class="cls-6" x1="678.02" y1="48.99" x2="572.11" y2="254.82"/><polyline class="cls-5" points="554.54 395.4 666.02 359.68 736.18 396.11"/><line class="cls-5" x1="666.88" y1="359.47" x2="702.61" y2="290.03"/><polygon class="cls-5" points="325.96 519.64 321.99 543.59 343.54 554.77 360.83 537.72 349.96 516.02 325.96 519.64"/><polygon class="cls-5" points="326.24 588.61 345.25 576.49 344.06 553.98 323.87 543.59 304.86 555.71 306.05 578.22 326.24 588.61"/><polygon class="cls-5" points="296.64 425.95 279.5 408.77 290.54 387.15 314.51 390.97 318.28 414.95 296.64 425.95"/><polygon class="cls-5" points="253.05 366.23 275.56 365.04 287.68 384.05 277.29 404.24 254.78 405.42 242.66 386.42 253.05 366.23"/><polyline class="cls-5" points="500.55 414.63 388.38 450.58 352.81 520.9"/><line class="cls-5" x1="387.55" y1="450.92" x2="318.11" y2="415.19"/><polyline class="cls-7" points="775 222 884 222 884 429 837 429"/><line class="cls-7" x1="884" y1="323" x2="937" y2="323"/><polyline class="cls-7" points="611.89 420.72 772.18 482 937 482"/><polyline class="cls-7" points="611.89 420.22 765.72 526 937 530.5"/><polyline class="cls-6" points="220.77 151.34 457.4 273.1 565.97 611.84"/><polyline class="cls-6" points="630.23 19.42 508.04 256.87 616.61 595.61"/><rect class="cls-8" x="550.31" y="365.6" width="65.05" height="45.36" rx="10" ry="10" transform="translate(774.7 -285.26) rotate(72.23)"/><rect class="cls-8" x="440.15" y="402.16" width="65.05" height="45.36" rx="10" ry="10" transform="translate(735.3 -153.9) rotate(72.46)"/></g></svg>