<svg id="圖層_1" data-name="圖層 1" xmlns="http://www.w3.org/2000/svg" xmlns:xlink="http://www.w3.org/1999/xlink" viewBox="0 0 1920 627.78"><defs><style>.cls-1,.cls-10,.cls-13,.cls-14,.cls-16,.cls-17,.cls-21,.cls-6,.cls-7,.cls-9{fill:none;}.cls-2{clip-path:url(#clip-path);}.cls-19,.cls-3{font-size:40px;}.cls-12,.cls-19,.cls-3{font-family:Corbel-Bold, Corbel;font-weight:700;}.cls-3{letter-spacing:0.05em;}.cls-4{letter-spacing:0.12em;}.cls-19,.cls-5{letter-spacing:0.11em;}.cls-6{stroke:#f93;}.cls-10,.cls-13,.cls-14,.cls-15,.cls-16,.cls-17,.cls-21,.cls-6,.cls-7,.cls-9{stroke-miterlimit:10;}.cls-13,.cls-14,.cls-15,.cls-16,.cls-6,.cls-7{stroke-width:5px;}.cls-7{stroke:#abd6d3;}.cls-8{fill:#bf211d;}.cls-9{stroke:#000;}.cls-10,.cls-21,.cls-9{stroke-width:3px;}.cls-10{stroke:#6d6d6c;stroke-dasharray:3;}.cls-11{fill:#a3bf9f;}.cls-12{font-size:30px;fill:#666;letter-spacing:0.12em;}.cls-13,.cls-15{stroke:#605a57;}.cls-14{stroke:#9b9a8c;stroke-dasharray:12.46;}.cls-15{fill:#fff;}.cls-16{stroke:#9fd3a2;}.cls-17{stroke:#666;stroke-width:2px;}.cls-18{font-size:60px;fill:#408a95;font-family:Bahnschrift, Bahnschrift;}.cls-20{fill:#2d2d2d;}.cls-21{stroke:#ffb5a1;}</style><clipPath id="clip-path"><rect class="cls-1" width="1920" height="627.78"/></clipPath></defs><title>1221-全定稿原始檔</title><g class="cls-2"><text class="cls-3" transform="translate(71.89 216.4)">T<tspan class="cls-4" x="24.87" y="0">umor </tspan><tspan class="cls-5"><tspan x="0" y="48">microenvironment</tspan></tspan></text><line class="cls-6" x1="1222.48" y1="385.62" x2="1267.25" y2="379.57"/><line class="cls-6" x1="1302.5" y1="444.3" x2="1296.45" y2="399.53"/><polyline class="cls-6" points="1225.08 395.64 1276.55 388.69 1318.62 333.46"/><line class="cls-7" x1="1306.57" y1="368.96" x2="1336.1" y2="390.63"/><polygon class="cls-8" points="1373.65 498.31 1372.43 488.35 1379.46 481.19 1370.91 475.93 1369.69 465.97 1360.25 469.38 1351.7 464.12 1348.48 473.63 1339.04 477.03 1344.46 485.48 1341.24 494.98 1351.22 496.01 1356.64 504.45 1363.67 497.29 1373.65 498.31"/><line class="cls-9" x1="1347.65" y1="380.94" x2="1344.76" y2="371.61"/><line class="cls-9" x1="1331.74" y1="400.43" x2="1322.73" y2="400.67"/><line class="cls-9" x1="1332.39" y1="405.5" x2="1324.59" y2="411.68"/><line class="cls-9" x1="1357.57" y1="430.52" x2="1354.83" y2="439.33"/><line class="cls-9" x1="1362.64" y1="430.39" x2="1366.09" y2="439.13"/><line class="cls-9" x1="1352.14" y1="380.99" x2="1356.26" y2="372.04"/><line class="cls-9" x1="1380.47" y1="408.37" x2="1388.65" y2="401.18"/><line class="cls-9" x1="1381.43" y1="413.72" x2="1390.14" y2="416.28"/><path class="cls-10" d="M1380.28,432.61a21.69,21.69,0,0,1,8.25,6.16c1.55,1.88,2.82,4.21,2.54,6.63a7,7,0,0,1-4.35,5.41,10.88,10.88,0,0,1-7.15.17,15.18,15.18,0,0,1-5-2.5,2.24,2.24,0,0,1-1-1.44c-.08-.83.71-1.49,1.47-1.83,3.29-1.48,7.16-.18,10.29,1.62s6.29,4.37,7.87,7.76,1.39,7.79-1.2,10.49a10.07,10.07,0,0,1-6.23,2.77,28.62,28.62,0,0,1-6.93-.36"/><polyline class="cls-6" points="1291.78 446.63 1284.8 394.98 1326.88 339.75"/><path class="cls-11" d="M1008.24,186l-4.25-23.5a4.9,4.9,0,0,0-7.38-3.3L976,171.91a4.9,4.9,0,0,0,.61,8.67l24.91,10.82A4.9,4.9,0,0,0,1008.24,186Z"/><text class="cls-12" transform="translate(1486.22 251.96)">Cleaved through <tspan x="0" y="36">extracellular proteases, </tspan><tspan x="0" y="72">lysosomal proteases, </tspan><tspan x="0" y="108">anaerobic or low </tspan><tspan x="0" y="144">PH environment</tspan></text><line class="cls-6" x1="840.2" y1="340.36" x2="891.95" y2="333.08"/><line class="cls-6" x1="933.13" y1="407.75" x2="925.85" y2="356"/><polyline class="cls-6" points="843.26 351.94 902.75 343.57 951.08 279.44"/><polyline class="cls-6" points="920.74 410.5 912.34 350.8 960.66 286.66"/><line class="cls-7" x1="936.23" y1="319.39" x2="970.52" y2="344.26"/><polygon class="cls-8" points="992.63 366.99 991.16 355.47 999.24 347.14 989.32 341.11 987.85 329.6 976.95 333.6 967.03 327.57 963.36 338.58 952.46 342.58 958.78 352.32 955.12 363.33 966.67 364.46 972.99 374.19 981.08 365.86 992.63 366.99"/><path class="cls-13" d="M1475.46,702.41c-15-34.5-84.35-133.14-136.93-185.72a766,766,0,0,0-257.41-169.78,136.07,136.07,0,0,1-266.52-54.51A767.12,767.12,0,0,0,252.35,517.92C171,601.78,127,707.78,127,707.78"/><path class="cls-14" d="M1443,700.78s-75-122-129.39-175.84A727,727,0,0,0,1097.44,375.8c-.51,1.14-1,2.28-1.56,3.42a159.05,159.05,0,0,1-302.9-67c-184.24,1.67-368,73-508.53,213.84C205,608.78,156,707.78,156,707.78"/><rect class="cls-15" x="490.83" y="322.83" width="37.63" height="69.9" rx="17.01" ry="17.01" transform="matrix(0.94, -0.34, 0.34, 0.94, -92.11, 197.65)"/><rect class="cls-15" x="335.99" y="407.15" width="37.49" height="69.65" rx="16.94" ry="16.94" transform="translate(-188.43 280.27) rotate(-34.67)"/><rect class="cls-15" x="1344.98" y="528.2" width="35.38" height="65.72" rx="15.99" ry="15.99" transform="translate(1794.45 1970.04) rotate(-129.42)"/><rect class="cls-15" x="1217.48" y="405.83" width="37.63" height="69.9" rx="17.01" ry="17.01" transform="translate(2030.57 1485.7) rotate(-146.86)"/><rect class="cls-15" x="660.28" y="275.13" width="35.75" height="66.4" rx="16.16" ry="16.16" transform="translate(-30.23 77.79) rotate(-6.42)"/><rect class="cls-15" x="838.67" y="388.87" width="33.82" height="62.83" rx="15.29" ry="15.29" transform="translate(374.01 -402.36) rotate(33.49)"/><rect class="cls-15" x="979.27" y="421.22" width="33.82" height="62.83" rx="15.29" ry="15.29" transform="translate(-86.88 296.97) rotate(-16.26)"/><line class="cls-16" x1="710.1" y1="480.28" x2="797.3" y2="454.86"/><polyline class="cls-16" points="724.4 486.08 710.1 480.28 719.05 467.71"/><polygon class="cls-8" points="737.9 553.17 743.56 541.3 737.81 529.48 750.62 526.51 756.27 514.65 766.58 522.81 779.38 519.84 779.43 532.98 789.74 541.14 779.49 549.37 779.54 562.51 766.72 559.63 756.47 567.87 750.72 556.04 737.9 553.17"/><line class="cls-6" x1="534.51" y1="498.66" x2="562.31" y2="477.66"/><line class="cls-6" x1="574.66" y1="510.18" x2="540.75" y2="502.14"/><polyline class="cls-6" points="518.8 460.74 557.88 469.57 603.15 440.98"/><polyline class="cls-6" points="615.66 512.4 585.6 492.61 575.92 445.65"/><line class="cls-7" x1="567.83" y1="543.9" x2="595.38" y2="537.69"/><circle class="cls-14" cx="582.47" cy="487.78" r="92.11" transform="translate(-79.18 861.18) rotate(-69.38)"/><circle class="cls-13" cx="582.83" cy="487.62" r="78.15" transform="translate(-78.79 861.41) rotate(-69.38)"/><polygon class="cls-8" points="632.53 478.38 629.23 473.9 630.68 468.53 625.12 468.31 621.82 463.83 618.19 468.04 612.63 467.83 613.65 473.29 610.02 477.5 614.93 480.11 615.96 485.58 621.06 483.36 625.98 485.97 627.43 480.6 632.53 478.38"/><text class="cls-12" transform="translate(1475.46 505.87)">Membrane bound antigens</text><line class="cls-17" x1="1394.22" y1="528.78" x2="1455" y2="505.87"/><line class="cls-17" x1="1423" y1="288" x2="1455" y2="288"/><polyline class="cls-17" points="1374 386 1420 386 1420 253 1147 253"/><text class="cls-18" transform="translate(247.39 92.31) scale(1.07 1)">Functional Conjugates</text><text class="cls-19" transform="translate(881.11 579.91)">cancer cell</text><line class="cls-6" x1="1091.89" y1="121.94" x2="1083.51" y2="169.05"/><line class="cls-6" x1="1150.47" y1="209.21" x2="1103.36" y2="200.84"/><polyline class="cls-6" points="1102.38 125.13 1092.76 179.29 1032.46 221.39"/><polygon class="cls-8" points="1198.74 321.98 1188.33 324.16 1183.55 333.65 1175.36 326.88 1164.96 329.06 1165.14 318.43 1156.95 311.65 1165.38 305.18 1165.57 294.55 1175.89 297.1 1184.32 290.62 1188.76 300.27 1199.08 302.82 1194.3 312.32 1198.74 321.98"/><line class="cls-9" x1="1128.09" y1="244.83" x2="1134.02" y2="236.35"/><line class="cls-9" x1="1137.82" y1="269.64" x2="1146.83" y2="272.79"/><line class="cls-9" x1="1135.52" y1="274.54" x2="1141.38" y2="283.3"/><line class="cls-9" x1="1102.02" y1="291.61" x2="1101.92" y2="301.38"/><line class="cls-9" x1="1096.95" y1="289.83" x2="1090.64" y2="297.54"/><line class="cls-9" x1="1123.54" y1="243.43" x2="1122.29" y2="233.06"/><line class="cls-9" x1="1086.1" y1="261.86" x2="1080.19" y2="251.95"/><line class="cls-9" x1="1083.4" y1="266.94" x2="1073.79" y2="266.69"/><path class="cls-10" d="M1124.63,296.73a28.87,28.87,0,0,0-2.84,13.84c.15,3.34,1,6.89,3.6,9.13a10.15,10.15,0,0,0,9.7,1.61,15.08,15.08,0,0,0,7.67-6.33,20.29,20.29,0,0,0,2.85-7.07,3,3,0,0,0-.27-2.42c-.71-.93-2.15-.88-3.27-.54-4.86,1.47-7.69,6.32-9.28,11-1.65,4.87-2.47,10.2-.92,15.13s5.92,9.27,11.19,9.69a14.42,14.42,0,0,0,9.17-2.82,39.39,39.39,0,0,0,6.94-6.68"/><text class="cls-12" transform="translate(1486.22 136.61)">ECM antigens</text><circle class="cls-20" cx="1142.52" cy="149.19" r="18.74" transform="translate(809.8 1252.33) rotate(-80.66)"/><path class="cls-21" d="M1163.75,79.93c-6.85,4.38-14.38,8-22.45,9s-16.75-.8-22.83-6.2c-3.41-3-5.92-7.05-9.74-9.54-6.1-4-14-3.13-21.25-2.62-8.52.6-17.23.52-25.4-2s-15.79-7.71-19.7-15.3"/><path class="cls-21" d="M1073.52,71.19a22.64,22.64,0,0,0-12.07,4.36c-1,.74-2,1.74-2,3a2.77,2.77,0,0,0,2.61,2.37,6.49,6.49,0,0,0,3.64-1,21.53,21.53,0,0,0,5.77-4.66c.42-.48.77-1.34.21-1.65a1.11,1.11,0,0,0-1,.1,40.29,40.29,0,0,0-6.84,3.88"/><path class="cls-21" d="M1056,65.68a22.64,22.64,0,0,0-.86-12.8c-.43-1.16-1.11-2.42-2.32-2.71a2.77,2.77,0,0,0-3,1.85,6.49,6.49,0,0,0,0,3.79,21.53,21.53,0,0,0,2.89,6.83c.35.54,1.07,1.1,1.53.66a1.11,1.11,0,0,0,.17-1,40.29,40.29,0,0,0-1.84-7.65"/><path class="cls-21" d="M1096.48,70.37a22.64,22.64,0,0,0-8.62-9.5c-1.06-.64-2.37-1.2-3.5-.68a2.77,2.77,0,0,0-1.2,3.31,6.49,6.49,0,0,0,2.35,3A21.53,21.53,0,0,0,1092,70c.6.2,1.53.2,1.6-.43a1.11,1.11,0,0,0-.46-.85,40.29,40.29,0,0,0-6.19-4.85"/><path class="cls-21" d="M1117.27,81.68a22.64,22.64,0,0,0-12.81-.67c-1.2.29-2.53.82-3,2a2.77,2.77,0,0,0,1.48,3.19,6.49,6.49,0,0,0,3.76.46,21.53,21.53,0,0,0,7.13-2.05c.57-.28,1.22-.93.83-1.44a1.11,1.11,0,0,0-.93-.28,40.29,40.29,0,0,0-7.81.91"/><path class="cls-21" d="M1139.08,89.35a22.64,22.64,0,0,0-6.58-11c-.91-.84-2.09-1.65-3.3-1.36a2.77,2.77,0,0,0-1.83,3,6.49,6.49,0,0,0,1.71,3.38,21.53,21.53,0,0,0,5.68,4.77c.55.32,1.46.5,1.66-.11a1.11,1.11,0,0,0-.29-.93,40.29,40.29,0,0,0-5.11-6"/><line class="cls-7" x1="1070.49" y1="208.7" x2="1092.11" y2="240.9"/><polyline class="cls-6" points="1153.4 197.97 1099.05 188.31 1038.76 230.4"/><line class="cls-17" x1="1309" y1="127" x2="1455" y2="127"/><polyline class="cls-17" points="1178 150 1309 150 1309 82.78 1177.92 83.66"/><path class="cls-9" d="M71.89,599.83h0a40.78,40.78,0,0,1-40.78-40.78V166a40.78,40.78,0,0,1,40.78-40.78h0"/><path class="cls-10" d="M633.36,525.57a26.67,26.67,0,0,0,19.23,12.27c7.1.85,15-1.07,21,2.81s7.6,12.18,12,18c6.62,8.72,19.17,10.81,29.92,8.7a19.22,19.22,0,0,0,7.43-2.79,8.64,8.64,0,0,0,3.91-6.64c.06-4-4-7.42-8-7a8.25,8.25,0,0,0-6.87,8.43c.28,5.43,5.57,9.27,10.75,10.92a32.49,32.49,0,0,0,17,.7c4.19-1,8.68-3.34,9.63-7.53"/><circle class="cls-20" cx="636.85" cy="268.72" r="9.78" transform="translate(241.78 835.91) rotate(-78.02)"/><path class="cls-21" d="M540.72,247.11c7.63,0,15.41-.9,22.32-4.14s12.87-9.06,15-16.39c1.18-4.11,1.15-8.57,2.93-12.46,2.84-6.21,9.51-9.52,15.52-12.76,7.05-3.81,13.92-8.25,19.13-14.34s8.64-14,7.92-22"/><path class="cls-21" d="M607.82,194.81a21.25,21.25,0,0,1,11.75-2.61c1.16.08,2.47.36,3.05,1.37a2.6,2.6,0,0,1-.88,3.19,6.09,6.09,0,0,1-3.41,1,20.2,20.2,0,0,1-6.92-.8c-.57-.17-1.28-.67-1-1.2a1,1,0,0,1,.82-.4,37.81,37.81,0,0,1,7.37-.37"/><path class="cls-21" d="M618.93,181.64a21.25,21.25,0,0,1-5.76-10.57c-.24-1.14-.34-2.48.47-3.31a2.6,2.6,0,0,1,3.31,0,6.09,6.09,0,0,1,1.91,3,20.2,20.2,0,0,1,1.15,6.87c0,.6-.29,1.41-.88,1.29-.31-.07-.48-.39-.61-.67a37.81,37.81,0,0,1-2.39-7"/><path class="cls-21" d="M589.22,205.7a21.25,21.25,0,0,1,2.06-11.86c.52-1,1.28-2.15,2.43-2.3a2.6,2.6,0,0,1,2.61,2,6.09,6.09,0,0,1-.36,3.54,20.2,20.2,0,0,1-3.37,6.09c-.38.47-1.11.93-1.49.46a1,1,0,0,1-.06-.91,37.81,37.81,0,0,1,2.46-7"/><path class="cls-21" d="M578.43,225.12a21.25,21.25,0,0,1,9.81-7c1.1-.38,2.42-.63,3.34.08a2.6,2.6,0,0,1,.43,3.28,6.09,6.09,0,0,1-2.75,2.25,20.2,20.2,0,0,1-6.68,2c-.6.07-1.44-.12-1.38-.72,0-.31.33-.53.6-.69a37.81,37.81,0,0,1,6.65-3.21"/><path class="cls-21" d="M565,242.17a21.25,21.25,0,0,1-.32-12c.3-1.12.83-2.36,1.93-2.73a2.6,2.6,0,0,1,3,1.47,6.09,6.09,0,0,1,.34,3.54,20.2,20.2,0,0,1-2.1,6.64c-.28.53-.9,1.13-1.37.75a1,1,0,0,1-.24-.88,37.81,37.81,0,0,1,1-7.31"/><path class="cls-11" d="M721.59,222.11l-13.48-13.6a3.93,3.93,0,0,0-6.38,1.17l-7.89,17.76a3.93,3.93,0,0,0,4.34,5.45l21.37-4.16A3.93,3.93,0,0,0,721.59,222.11Z"/><line class="cls-6" x1="201.51" y1="503.45" x2="169.7" y2="498.87"/><line class="cls-6" x1="159.87" y1="446.24" x2="155.29" y2="478.05"/><polyline class="cls-6" points="203.36 494.61 166.8 489.34 127.26 518.93"/><polyline class="cls-6" points="167.66 446.74 162.37 483.43 122.83 513.02"/><line class="cls-7" x1="141.4" y1="496.2" x2="125.42" y2="475.63"/><polygon class="cls-8" points="116.26 458.42 115.16 465.47 108.95 469 113.78 474.26 112.67 481.32 119.8 480.82 124.62 486.08 128.68 480.21 135.8 479.72 133.74 472.88 137.79 467.01 131.16 464.36 129.1 457.53 122.89 461.06 116.26 458.42"/><path class="cls-21" d="M160,346.73c0,7.63,1,15.41,4.34,22.28s9.17,12.79,16.53,14.83c4.12,1.14,8.58,1.07,12.48,2.81,6.23,2.78,9.6,9.43,12.9,15.4,3.87,7,8.38,13.84,14.51,19s14.12,8.51,22.1,7.72"/><path class="cls-21" d="M212.88,413.35a21.25,21.25,0,0,1,2.72,11.73c-.07,1.16-.34,2.48-1.34,3.06a2.6,2.6,0,0,1-3.19-.85,6.09,6.09,0,0,1-1-3.4,20.2,20.2,0,0,1,.73-6.92c.16-.58.66-1.28,1.19-1a1,1,0,0,1,.41.81,37.81,37.81,0,0,1,.44,7.37"/><path class="cls-21" d="M226.16,424.34a21.25,21.25,0,0,1,10.52-5.86c1.14-.25,2.47-.36,3.32.44a2.6,2.6,0,0,1,.07,3.3,6.09,6.09,0,0,1-3,1.94,20.2,20.2,0,0,1-6.86,1.21c-.6,0-1.42-.28-1.29-.87.06-.31.38-.49.67-.62a37.81,37.81,0,0,1,7-2.45"/><path class="cls-21" d="M201.82,394.84a21.25,21.25,0,0,1,11.88,1.95c1,.51,2.16,1.26,2.32,2.41a2.6,2.6,0,0,1-2,2.63,6.09,6.09,0,0,1-3.54-.33,20.2,20.2,0,0,1-6.12-3.31c-.47-.37-.94-1.1-.48-1.48a1,1,0,0,1,.91-.07,37.81,37.81,0,0,1,7,2.4"/><path class="cls-21" d="M182.31,384.24a21.25,21.25,0,0,1,7.07,9.75c.39,1.1.65,2.41,0,3.34a2.6,2.6,0,0,1-3.27.46,6.09,6.09,0,0,1-2.28-2.73,20.2,20.2,0,0,1-2-6.66c-.07-.59.11-1.44.71-1.39.31,0,.53.32.7.59a37.81,37.81,0,0,1,3.27,6.62"/><path class="cls-21" d="M165.14,371a21.25,21.25,0,0,1,12-.43c1.13.29,2.37.81,2.75,1.9a2.6,2.6,0,0,1-1.44,3,6.09,6.09,0,0,1-3.53.37,20.2,20.2,0,0,1-6.66-2c-.53-.27-1.13-.89-.76-1.36a1,1,0,0,1,.88-.25,37.81,37.81,0,0,1,7.32,1"/><path class="cls-11" d="M278.48,348.54,260,353.39a3.93,3.93,0,0,0-2.18,6.1l11.41,15.73a3.93,3.93,0,0,0,6.89-1l7.11-20.58A3.93,3.93,0,0,0,278.48,348.54Z"/></g></svg>