<svg id="圖層_1" data-name="圖層 1" xmlns="http://www.w3.org/2000/svg" xmlns:xlink="http://www.w3.org/1999/xlink" viewBox="0 0 1920 631"><defs><style>.cls-1,.cls-23,.cls-24,.cls-26,.cls-27,.cls-5,.cls-6,.cls-7,.cls-8{fill:none;}.cls-2{clip-path:url(#clip-path);}.cls-3{font-size:75.4px;font-family:AdobeMingStd-Light-B5pc-H, Adobe Ming Std;}.cls-4,.cls-9{fill:#408a95;}.cls-5,.cls-9{stroke:#605a57;}.cls-15,.cls-16,.cls-20,.cls-22,.cls-23,.cls-24,.cls-26,.cls-27,.cls-5,.cls-6,.cls-7,.cls-8,.cls-9{stroke-miterlimit:10;}.cls-24,.cls-27,.cls-5,.cls-6,.cls-7,.cls-8,.cls-9{stroke-width:5px;}.cls-6{stroke:#9b9a8c;}.cls-6,.cls-8{stroke-dasharray:12.46;}.cls-7{stroke:#24637f;}.cls-8{stroke:#65b4c9;}.cls-10{font-size:60px;}.cls-10,.cls-17,.cls-20,.cls-25,.cls-28{fill:#fff;}.cls-10,.cls-25{font-family:Bahnschrift, Bahnschrift;}.cls-11{letter-spacing:-0.02em;}.cls-12{letter-spacing:-0.02em;}.cls-13,.cls-21{font-size:40px;}.cls-13,.cls-17,.cls-21{font-family:Corbel-Bold, Corbel;font-weight:700;}.cls-13{letter-spacing:0.11em;}.cls-14{letter-spacing:0.1em;}.cls-15{fill:#b1e8e8;}.cls-15,.cls-16,.cls-22{stroke:#408a95;}.cls-15,.cls-16,.cls-22,.cls-26{stroke-width:3px;}.cls-16{fill:#f9b9b9;}.cls-17{font-size:30px;}.cls-17,.cls-19{letter-spacing:0.12em;}.cls-18{letter-spacing:0.05em;}.cls-20,.cls-26,.cls-27{stroke:#fff;}.cls-20{stroke-width:2px;}.cls-21{letter-spacing:0.12em;}.cls-22{fill:#914a4a;}.cls-23,.cls-24{stroke:#f93;}.cls-23{stroke-width:6.5px;}.cls-25{font-size:45px;}</style><clipPath id="clip-path"><rect class="cls-1" x="-0.04" y="-1.3" width="1852.67" height="632.3"/></clipPath></defs><title>1221-全定稿原始檔</title><g class="cls-2"><text class="cls-3" transform="translate(807.47 -93.48)">IMAGE 3</text><rect class="cls-4" width="1920" height="631"/><path class="cls-5" d="M412.3,669.16c289.65-240.83,714-272.45,1041.63-50.4l59.08,41"/><path class="cls-6" d="M437.81,684.57c274.39-228.08,676.29-258,986.67-47.68"/><path class="cls-7" d="M-67-74S-69-26,101.83,88.53C459.93,328.59,930.5,270.94,1217.62-31.32"/><path class="cls-8" d="M1187.12-41.89C914.55,244.18,467.28,301.61,131.29,70.39,29,0-9-60-9-60"/><rect class="cls-9" x="1121.5" y="443.12" width="45.2" height="83.96" rx="20.43" ry="20.43" transform="translate(72.05 -143.39) rotate(7.4)"/><rect class="cls-9" x="667.08" y="477.02" width="45.2" height="83.96" rx="20.43" ry="20.43" transform="translate(-108.98 191.64) rotate(-14.67)"/><rect class="cls-9" x="899.79" y="432.31" width="45.2" height="83.96" rx="20.43" ry="20.43" transform="translate(-14.64 29.62) rotate(-1.83)"/><text class="cls-10" transform="translate(1277.9 124.07) scale(1.07 1)">Antibody-<tspan class="cls-11" x="262.7" y="0">r</tspan><tspan x="287.14" y="0">edi</tspan><tspan class="cls-12" x="367.29" y="0">r</tspan><tspan x="391.73" y="0">ected</tspan><tspan x="373.74" y="72" xml:space="preserve"> T-cell</tspan></text><text class="cls-13" transform="translate(41.88 384.18)">Spatial optimization<tspan x="101.9" y="48">by lin</tspan><tspan class="cls-14" x="222.8" y="48">k</tspan><tspan x="247.26" y="48">er length</tspan></text><path d="M550.93,513.73c-13.33-9.63-20.37-23.8-23-39.77-2.27-13.81-.8-28.34-6.36-41.5-2.77-6.55-7-10.21-11.75-15.13-3.41-3.52-2.42-3.9-1.16-7a30.31,30.31,0,0,0,2-7.15,49.93,49.93,0,0,0-.08-12c-1.79-18.66-4.91-37.1-8.16-55.55C498.74,314.42,497,293,507,273.18c.87-1.72-1.72-3.24-2.59-1.51-8.35,16.58-9.17,34.46-6.74,52.59,2.71,20.15,7,40,9.27,60.24A118,118,0,0,1,508,398.28a27.64,27.64,0,0,1-1.24,8.56c-.75,2.25-2.38,4.57-2.55,7-.16,2.24,1,3.56,2.58,5,3.61,3.24,7,5.83,9.58,10.08,8.21,13.53,6.17,30.15,8.53,45.17,2.69,17.08,10.28,32,24.48,42.27,1.57,1.13,3.07-1.47,1.51-2.59Z"/><path class="cls-15" d="M658.52,181.22l22.39,74.92s-27.13,13.74-25.23,34c7.57,5.16,17.89,5.88,17.89,5.88s10.17-24.27,16.4-30l1-.29c8.35,1.48,29.92,16.45,29.92,16.45s8.25-6,11.84-14.41C723.36,249.68,693,252.61,693,252.61l-22.39-74.92Z"/><path class="cls-16" d="M868.93,220.17l-24.85-84.42-13.21,4,24.82,84.33c-10.25,5.13-16.21,14.46-13.7,22.68,2.94,9.62,16.65,13.95,30.44,9.74s22.9-15.52,20-25.13C889.94,223.31,880.34,218.83,868.93,220.17Z"/><text class="cls-17" transform="translate(1043 238.69)">Programmable <tspan class="cls-18"><tspan x="0" y="36">T</tspan><tspan class="cls-19" x="18.51" y="36">-cell receptors activation</tspan></tspan></text><line class="cls-20" x1="930" y1="234.22" x2="1015" y2="234.22"/><text class="cls-17" transform="translate(1083.87 410.81)">Antibody-redirected</text><line class="cls-20" x1="972" y1="408.22" x2="1057" y2="408.22"/><text class="cls-13" transform="translate(831.27 589.81)">cancer cell</text><text class="cls-21" transform="translate(300.81 112.69) scale(1.03 1)">T cell</text><circle class="cls-22" cx="666.43" cy="382.91" r="10.33" transform="translate(-82.43 209.8) rotate(-16.86)"/><line class="cls-23" x1="603.93" y1="302.58" x2="641.6" y2="332.1"/><line class="cls-23" x1="708.49" y1="291.84" x2="678.98" y2="329.5"/><line class="cls-23" x1="611.68" y1="294.81" x2="654.98" y2="328.75"/><line class="cls-23" x1="699.94" y1="283.97" x2="665.89" y2="327.42"/><polyline class="cls-23" points="670.7 336.54 662.92 346.32 653.14 338.54"/><line class="cls-23" x1="662.56" y1="346.12" x2="664.43" y2="364.03"/><line class="cls-23" x1="622.86" y1="473.47" x2="653.58" y2="436.78"/><line class="cls-23" x1="727.38" y1="462.28" x2="690.69" y2="431.56"/><line class="cls-23" x1="632.05" y1="479.46" x2="667.37" y2="437.28"/><line class="cls-23" x1="720.64" y1="471.75" x2="678.32" y2="436.31"/><polyline class="cls-23" points="681.13 426.4 671.49 418.44 663.54 428.08"/><line class="cls-23" x1="671.17" y1="418.62" x2="669.29" y2="400.72"/><circle class="cls-22" cx="896.57" cy="338.81" r="10.33" transform="translate(-60.27 394.32) rotate(-24.02)"/><line class="cls-23" x1="824.55" y1="266.89" x2="865.6" y2="291.48"/><line class="cls-23" x1="926.96" y1="243.2" x2="902.37" y2="284.25"/><line class="cls-23" x1="831.27" y1="258.22" x2="878.46" y2="286.49"/><line class="cls-23" x1="917.49" y1="236.46" x2="889.12" y2="283.82"/><polyline class="cls-23" points="895.03 292.26 888.53 302.93 877.86 296.43"/><line class="cls-23" x1="888.15" y1="302.79" x2="892.24" y2="320.31"/><line class="cls-23" x1="864.63" y1="434.08" x2="890.54" y2="393.85"/><line class="cls-23" x1="966.93" y1="409.96" x2="926.7" y2="384.05"/><line class="cls-23" x1="874.49" y1="438.88" x2="904.28" y2="392.63"/><line class="cls-23" x1="961.43" y1="420.2" x2="915.02" y2="390.31"/><polyline class="cls-23" points="916.58 380.12 906.02 373.43 899.33 383.99"/><line class="cls-24" x1="905.72" y1="373.65" x2="901.63" y2="356.12"/><text class="cls-25" transform="translate(493.45 124.07) scale(1.07 1)">TCR/CD3</text><text class="cls-25" transform="translate(744.84 95.02) scale(1.07 1)">CD28</text><rect class="cls-26" x="481.02" y="74.09" width="213.16" height="63.66" rx="12.44" ry="12.44"/><rect class="cls-26" x="729.33" y="48.58" width="136.37" height="63.66" rx="9.95" ry="9.95"/><path class="cls-27" d="M602.68,138.19c0,26.11,19.64,47.66,45.17,51.09"/><circle class="cls-28" cx="647.48" cy="189.17" r="7.52" transform="matrix(0.08, -1, 1, 0.08, 408.23, 819.86)"/><path class="cls-27" d="M783.68,112.19c0,23.55,17.54,43,40.46,46.4"/><circle class="cls-28" cx="823.78" cy="158.48" r="7.52" transform="translate(596.19 965.9) rotate(-85.15)"/></g></svg>