<svg xmlns="http://www.w3.org/2000/svg" xmlns:xlink="http://www.w3.org/1999/xlink" viewBox="0 0 1920 745.05"><defs><style>.cls-1,.cls-12,.cls-13,.cls-14,.cls-21,.cls-22,.cls-30,.cls-32,.cls-33,.cls-34,.cls-38,.cls-7,.cls-8{fill:none;}.cls-2{clip-path:url(#clip-path);}.cls-26,.cls-3,.cls-35,.cls-36,.cls-37,.cls-9{fill:#408a95;}.cls-4{font-size:34.71px;letter-spacing:0.11em;}.cls-10,.cls-23,.cls-24,.cls-26,.cls-4,.cls-5,.cls-6{font-family:Corbel-Bold, Corbel;font-weight:700;}.cls-5,.cls-6{font-size:40px;}.cls-5{letter-spacing:0.11em;}.cls-6{letter-spacing:0.12em;}.cls-7,.cls-9{stroke:#605a57;}.cls-11,.cls-12,.cls-13,.cls-14,.cls-21,.cls-22,.cls-30,.cls-32,.cls-33,.cls-34,.cls-35,.cls-36,.cls-37,.cls-38,.cls-7,.cls-8,.cls-9{stroke-miterlimit:10;}.cls-12,.cls-13,.cls-14,.cls-34,.cls-7,.cls-8,.cls-9{stroke-width:5px;}.cls-8{stroke:#9b9a8c;}.cls-13,.cls-8{stroke-dasharray:12.46;}.cls-10,.cls-23,.cls-24{font-size:30px;}.cls-10,.cls-11,.cls-16{fill:#fff;}.cls-10{letter-spacing:0.12em;}.cls-11{stroke:#fff;stroke-width:2px;}.cls-12{stroke:#24637f;}.cls-13{stroke:#65b4c9;}.cls-14{stroke:#abd6d3;}.cls-15{fill:#abd6d3;}.cls-16{font-size:60px;font-family:Bahnschrift, Bahnschrift;}.cls-17{letter-spacing:-0.04em;}.cls-18{letter-spacing:0em;}.cls-19{letter-spacing:-0.02em;}.cls-20{letter-spacing:-0.01em;}.cls-21{stroke:#66a9aa;stroke-width:15px;}.cls-22,.cls-35{stroke:#ff7bac;}.cls-22,.cls-32,.cls-33,.cls-35,.cls-36,.cls-37,.cls-38{stroke-width:8px;}.cls-23,.cls-24,.cls-31{fill:#666;}.cls-23,.cls-25{letter-spacing:0.1em;}.cls-24{letter-spacing:0.04em;}.cls-26{font-size:39.98px;letter-spacing:0.12em;}.cls-27{letter-spacing:0.05em;}.cls-28{letter-spacing:0.11em;}.cls-29{letter-spacing:0.11em;}.cls-30{stroke:#666;stroke-width:4px;}.cls-32,.cls-36{stroke:#f9cc3d;}.cls-33,.cls-37{stroke:#7ac943;}.cls-34{stroke:#ff1d25;}.cls-38{stroke:#f93;}</style><clipPath id="clip-path"><rect class="cls-1" y="35.22" width="1920" height="631"/></clipPath></defs><title>資產 1</title><g id="圖層_2" data-name="圖層 2"><g id="圖層_1-2" data-name="圖層 1"><g class="cls-2"><rect class="cls-3" y="35.22" width="1920" height="631"/><text class="cls-4" transform="translate(1488.82 348.42)">Optimized <tspan x="0" y="41.65">spatial conformation</tspan></text><text class="cls-5" transform="translate(1025.94 625.5) rotate(-0.09)">cancer cell</text><text class="cls-6" transform="translate(1033.87 85.71) rotate(-0.09) scale(1.03 1)">T cell</text><path class="cls-7" d="M548.18,728.48c330.08-328.43,862.95-327.09,1191.38,3"/><path class="cls-8" d="M579.54,740.45C892.23,429.33,1397,430.59,1708.14,743.29"/><rect class="cls-9" x="1438.88" y="503.92" width="43.86" height="81.47" rx="19.82" ry="19.82" transform="translate(225.91 -406.99) rotate(17.17)"/><rect class="cls-9" x="792.87" y="523.25" width="43.86" height="81.47" rx="19.82" ry="19.82" transform="translate(-151.75 345.45) rotate(-21.95)"/><rect class="cls-9" x="987.23" y="463.49" width="43.86" height="81.47" rx="19.82" ry="19.82" transform="translate(-65.34 160.57) rotate(-8.81)"/><rect class="cls-9" x="1239.78" y="453.78" width="43.86" height="81.47" rx="19.82" ry="19.82" transform="translate(80.42 -169.58) rotate(7.94)"/><path d="M1418.6,238.76c11.85,13,15.3,29.19,13.46,46.32-1.51,14-6.5,28.33-1.87,42.34a34.27,34.27,0,0,0,4.75,9.32c1.26,1.75,2.34,2.88,3,5,.87,2.67.52,2.31-1,4.28-.62.79-1.22,1.57-1.77,2.41-4.2,6.42-4.84,14.32-5.79,21.74-2.3,17.85-3.14,35.73-4.47,53.66-1.44,19.36-5.66,38-18.94,52.86-1.28,1.44.83,3.56,2.12,2.12,23.84-26.65,19.43-64.75,23-97.85,1.06-9.75,1.06-21.63,6.19-30.3,1.5-2.53,4.71-4.83,4.81-8,.12-3.4-3.83-6.26-5.53-8.81-9.91-14.87-3.27-32.68-1.54-48.81,1.92-18-2-34.9-14.34-48.44-1.31-1.43-3.42.7-2.12,2.12Z"/><text class="cls-10" transform="translate(786.66 394.42)">Antibody conjugation<tspan x="-116.27" y="36">specific to activation domain</tspan></text><line class="cls-11" x1="1176.21" y1="330.91" x2="1133.79" y2="378.34"/><path class="cls-12" d="M688.78.12S687.11,34,807.56,117C1060,291.2,1393.81,256.78,1598.88,47.33"/><path class="cls-13" d="M1577.32,39.47c-194.68,198.22-511.94,232.79-748.8,65.17-72.11-51-98.71-93.89-98.71-93.89"/><polyline class="cls-14" points="1141.42 248.99 1065.56 323.72 589 323.72"/><circle class="cls-15" cx="1141.09" cy="248.82" r="9.4" transform="translate(153.57 872.36) rotate(-44.57)"/><text class="cls-16" transform="translate(81.68 132.75) scale(1.07 1)"><tspan class="cls-17">T</tspan><tspan class="cls-18" x="26.54" y="0">a</tspan><tspan class="cls-19" x="58.48" y="0">r</tspan><tspan x="82.91" y="0">geted Uni</tspan><tspan class="cls-20" x="330.53" y="0">v</tspan><tspan x="359.65" y="0">ersal </tspan><tspan x="0" y="72">Immune Cells (TUIC)</tspan></text><rect class="cls-15" x="81.06" y="255.32" width="528.94" height="359.68" rx="25.18" ry="25.18"/><path class="cls-21" d="M121.83,396.07,139.66,387a11.39,11.39,0,0,1,16.57,10.14v36a11.39,11.39,0,0,1-6.2,10.14l-17.83,9.12a11.39,11.39,0,0,1-16.57-10.14v-36A11.39,11.39,0,0,1,121.83,396.07Z"/><path class="cls-21" d="M121.83,464.55l17.83-9.12a11.39,11.39,0,0,1,16.57,10.14v36A11.39,11.39,0,0,1,150,511.7l-17.83,9.12a11.39,11.39,0,0,1-16.57-10.14v-36A11.39,11.39,0,0,1,121.83,464.55Z"/><path class="cls-21" d="M121.83,534.7l17.83-9.12a11.39,11.39,0,0,1,16.57,10.14v36a11.39,11.39,0,0,1-6.2,10.14L132.2,591a11.39,11.39,0,0,1-16.57-10.14v-36A11.39,11.39,0,0,1,121.83,534.7Z"/><path class="cls-22" d="M121.83,534.7l17.83-9.12a11.39,11.39,0,0,1,16.57,10.14v36a11.39,11.39,0,0,1-6.2,10.14L132.2,591a11.39,11.39,0,0,1-16.57-10.14v-36A11.39,11.39,0,0,1,121.83,534.7Z"/><text class="cls-23" transform="translate(206.82 494.52)">Co-stimulating domain</text><text class="cls-24" transform="translate(206.82 428.52)">T<tspan class="cls-25" x="18.21" y="0">ransmembrane domain</tspan></text><text class="cls-26" transform="translate(109.62 310.91)">Uniform<tspan class="cls-27" x="175.59" y="0" xml:space="preserve"> T</tspan><tspan class="cls-28" x="210.36" y="0">-cell </tspan><tspan class="cls-29"><tspan x="0" y="47.98">activation domain</tspan></tspan></text><text class="cls-23" transform="translate(206.82 562.52)">Signaling domain</text><line class="cls-30" x1="171" y1="554.22" x2="191" y2="554.22"/><polygon class="cls-31" points="183.46 560.22 190.25 553.72 183.46 547.22 189.22 547.22 196 553.72 189.22 560.22 183.46 560.22"/><line class="cls-30" x1="171" y1="486.22" x2="191" y2="486.22"/><polygon class="cls-31" points="183.46 492.22 190.25 485.72 183.46 479.22 189.22 479.22 196 485.72 189.22 492.22 183.46 492.22"/><line class="cls-30" x1="171" y1="420.22" x2="191" y2="420.22"/><polygon class="cls-31" points="183.46 426.22 190.25 419.72 183.46 413.22 189.22 413.22 196 419.72 189.22 426.22 183.46 426.22"/><path class="cls-32" d="M121.83,464.55l17.83-9.12a11.39,11.39,0,0,1,16.57,10.14v36A11.39,11.39,0,0,1,150,511.7l-17.83,9.12a11.39,11.39,0,0,1-16.57-10.14v-36A11.39,11.39,0,0,1,121.83,464.55Z"/><path class="cls-33" d="M121.83,396.07,139.66,387a11.39,11.39,0,0,1,16.57,10.14v36a11.39,11.39,0,0,1-6.2,10.14l-17.83,9.12a11.39,11.39,0,0,1-16.57-10.14v-36A11.39,11.39,0,0,1,121.83,396.07Z"/><path class="cls-34" d="M1187.2,259.64c-.49,7.24-14.69,7.56-15.28,15.51-.27,3.82,3.11,6.35,6.53,8.71s6.86,4.58,6.94,8.09c.09,3.27-3.23,5.52-6.45,8.24s-6.32,5.87-5.2,10.11a7.49,7.49,0,0,0,4,4.83,13.9,13.9,0,0,0,6,1.26c2,0,4-.17,5.65-.23.41,0,.8,0,1.15,0a2,2,0,0,1,.54.07,6.35,6.35,0,0,1,.62.22,5.85,5.85,0,0,1,2.19,1.58,6.26,6.26,0,0,1,1.3,2.46,8,8,0,0,1,.18,2.65,32.16,32.16,0,0,1-1.31,5.78,21.29,21.29,0,0,0-1,5.92,6.61,6.61,0,0,0,2.37,5.09,7.24,7.24,0,0,0,5.81,1.66,17.49,17.49,0,0,0,5.62-2.16,54.19,54.19,0,0,1,5.1-2.71,8.32,8.32,0,0,1,2.38-.58,4.78,4.78,0,0,1,2.39.38,5.43,5.43,0,0,1,1.14.67,5.78,5.78,0,0,1,1,.82,7.68,7.68,0,0,1,1.38,2.18,20,20,0,0,1,.92,2.7c.27.93.51,1.91.76,2.9a22.12,22.12,0,0,0,2,5.59,6.6,6.6,0,0,0,4.35,3.29,6.85,6.85,0,0,0,5.46-1.12,23.75,23.75,0,0,0,4.51-4.06c2.82-3.11,5.38-6.31,8.67-5.83"/><path class="cls-35" d="M1193.91,105.82l15.23-4.23a9,9,0,0,1,11.21,10.46l-5.69,27.82a9,9,0,0,1-6.4,6.86L1193,151a9,9,0,0,1-11.21-10.46l5.69-27.82A9,9,0,0,1,1193.91,105.82Z"/><path class="cls-36" d="M1185.65,160l15.23-4.23a9,9,0,0,1,11.21,10.46L1206.39,194a9,9,0,0,1-6.4,6.86l-15.23,4.23a9,9,0,0,1-11.21-10.46l5.69-27.82A9,9,0,0,1,1185.65,160Z"/><path class="cls-37" d="M1177.45,214.83l15.23-4.23a9,9,0,0,1,11.21,10.46l-5.69,27.82a9,9,0,0,1-6.4,6.86L1176.56,260a9,9,0,0,1-11.21-10.46l5.69-27.82A9,9,0,0,1,1177.45,214.83Z"/><line class="cls-38" x1="1336.89" y1="449.5" x2="1286.51" y2="400.51"/><line class="cls-38" x1="1182.53" y1="448.84" x2="1231.52" y2="398.46"/><polyline class="cls-38" points="1324.37 459.63 1266.45 403.31 1264.93 295.34"/><polyline class="cls-38" points="1193.79 461.66 1250.31 403.54 1248.79 295.57"/></g></g></g></svg>