<svg id="圖層_1" data-name="圖層 1" xmlns="http://www.w3.org/2000/svg" xmlns:xlink="http://www.w3.org/1999/xlink" viewBox="0 0 1920 631"><defs><style>.cls-1,.cls-12,.cls-13,.cls-14,.cls-21,.cls-22,.cls-30,.cls-32,.cls-33,.cls-34,.cls-38,.cls-7,.cls-8{fill:none;}.cls-2{clip-path:url(#clip-path);}.cls-26,.cls-3,.cls-35,.cls-36,.cls-37,.cls-9{fill:#408a95;}.cls-4{font-size:34.71px;letter-spacing:0.11em;}.cls-10,.cls-23,.cls-24,.cls-26,.cls-4,.cls-5,.cls-6{font-family:Corbel-Bold, Corbel;font-weight:700;}.cls-5,.cls-6{font-size:40px;}.cls-5{letter-spacing:0.11em;}.cls-6{letter-spacing:0.12em;}.cls-7,.cls-9{stroke:#605a57;}.cls-11,.cls-12,.cls-13,.cls-14,.cls-21,.cls-22,.cls-30,.cls-32,.cls-33,.cls-34,.cls-35,.cls-36,.cls-37,.cls-38,.cls-7,.cls-8,.cls-9{stroke-miterlimit:10;}.cls-12,.cls-13,.cls-14,.cls-34,.cls-7,.cls-8,.cls-9{stroke-width:5px;}.cls-8{stroke:#9b9a8c;}.cls-13,.cls-8{stroke-dasharray:12.46;}.cls-10,.cls-23,.cls-24{font-size:30px;}.cls-10,.cls-11,.cls-16{fill:#fff;}.cls-10{letter-spacing:0.12em;}.cls-11{stroke:#fff;stroke-width:2px;}.cls-12{stroke:#24637f;}.cls-13{stroke:#65b4c9;}.cls-14{stroke:#abd6d3;}.cls-15{fill:#abd6d3;}.cls-16{font-size:60px;font-family:Bahnschrift, Bahnschrift;}.cls-17{letter-spacing:-0.04em;}.cls-18{letter-spacing:0em;}.cls-19{letter-spacing:-0.02em;}.cls-20{letter-spacing:-0.01em;}.cls-21{stroke:#66a9aa;stroke-width:15px;}.cls-22,.cls-35{stroke:#ff7bac;}.cls-22,.cls-32,.cls-33,.cls-35,.cls-36,.cls-37,.cls-38{stroke-width:8px;}.cls-23,.cls-24,.cls-31{fill:#666;}.cls-23,.cls-25{letter-spacing:0.1em;}.cls-24{letter-spacing:0.04em;}.cls-26{font-size:39.98px;letter-spacing:0.12em;}.cls-27{letter-spacing:0.05em;}.cls-28{letter-spacing:0.11em;}.cls-29{letter-spacing:0.11em;}.cls-30{stroke:#666;stroke-width:4px;}.cls-32,.cls-36{stroke:#f9cc3d;}.cls-33,.cls-37{stroke:#7ac943;}.cls-34{stroke:#ff1d25;}.cls-38{stroke:#f93;}</style><clipPath id="clip-path"><rect class="cls-1" width="1920" height="631"/></clipPath></defs><title>1221-全定稿原始檔(圖四修正及剪裁)</title><g class="cls-2"><rect class="cls-3" width="1920" height="631"/><text class="cls-4" transform="translate(1488.82 313.2)">Optimized <tspan x="0" y="41.65">spatial conformation</tspan></text><text class="cls-5" transform="translate(1025.94 590.28) rotate(-0.09)">cancer cell</text><text class="cls-6" transform="translate(1033.87 50.49) rotate(-0.09) scale(1.03 1)">T cell</text><path class="cls-7" d="M548.18,693.26c330.08-328.43,862.95-327.09,1191.38,3"/><path class="cls-8" d="M579.54,705.23C892.23,394.1,1397,395.37,1708.14,708.06"/><rect class="cls-9" x="1438.88" y="468.69" width="43.86" height="81.47" rx="19.82" ry="19.82" transform="translate(215.51 -408.56) rotate(17.17)"/><rect class="cls-9" x="792.87" y="488.03" width="43.86" height="81.47" rx="19.82" ry="19.82" transform="translate(-138.59 342.9) rotate(-21.95)"/><rect class="cls-9" x="987.23" y="428.27" width="43.86" height="81.47" rx="19.82" ry="19.82" transform="matrix(0.99, -0.15, 0.15, 0.99, -59.94, 160.15)"/><rect class="cls-9" x="1239.78" y="418.56" width="43.86" height="81.47" rx="19.82" ry="19.82" transform="translate(75.56 -169.92) rotate(7.94)"/><path d="M1418.6,203.54c11.85,13,15.3,29.19,13.46,46.32-1.51,14-6.5,28.33-1.87,42.34a34.27,34.27,0,0,0,4.75,9.32c1.26,1.75,2.34,2.88,3,5,.87,2.67.52,2.31-1,4.28-.62.79-1.22,1.57-1.77,2.41-4.2,6.42-4.84,14.32-5.79,21.74-2.3,17.85-3.14,35.73-4.47,53.66-1.44,19.36-5.66,38-18.94,52.86-1.28,1.44.83,3.56,2.12,2.12,23.84-26.65,19.43-64.75,23-97.85,1.06-9.75,1.06-21.63,6.19-30.3,1.5-2.53,4.71-4.83,4.81-8,.12-3.4-3.83-6.26-5.53-8.81-9.91-14.87-3.27-32.68-1.54-48.81,1.92-18-2-34.9-14.34-48.44-1.31-1.43-3.42.7-2.12,2.12Z"/><text class="cls-10" transform="translate(786.66 359.19)">Antibody conjugation<tspan x="-116.27" y="36">specific to activation domain</tspan></text><line class="cls-11" x1="1176.21" y1="295.69" x2="1133.79" y2="343.12"/><path class="cls-12" d="M688.78-35.1S687.11-1.26,807.56,81.82C1060,256,1393.81,221.56,1598.88,12.11"/><path class="cls-13" d="M1577.32,4.25C1382.64,202.46,1065.38,237,828.52,69.42c-72.11-51-98.71-93.89-98.71-93.89"/><polyline class="cls-14" points="1141.42 213.77 1065.56 288.5 589 288.5"/><circle class="cls-15" cx="1141.09" cy="213.6" r="9.4" transform="translate(178.29 862.23) rotate(-44.57)"/><text class="cls-16" transform="translate(81.68 97.53) scale(1.07 1)"><tspan class="cls-17">T</tspan><tspan class="cls-18" x="26.54" y="0">a</tspan><tspan class="cls-19" x="58.48" y="0">r</tspan><tspan x="82.91" y="0">geted Uni</tspan><tspan class="cls-20" x="330.53" y="0">v</tspan><tspan x="359.65" y="0">ersal </tspan><tspan x="0" y="72">Immune Cells (TUIC)</tspan></text><rect class="cls-15" x="81.06" y="220.1" width="528.94" height="359.68" rx="25.18" ry="25.18"/><path class="cls-21" d="M121.83,360.85l17.83-9.12a11.39,11.39,0,0,1,16.57,10.14v36A11.39,11.39,0,0,1,150,408l-17.83,9.12A11.39,11.39,0,0,1,115.62,407V371A11.39,11.39,0,0,1,121.83,360.85Z"/><path class="cls-21" d="M121.83,429.33l17.83-9.12a11.39,11.39,0,0,1,16.57,10.14v36a11.39,11.39,0,0,1-6.2,10.14L132.2,485.6a11.39,11.39,0,0,1-16.57-10.14v-36A11.39,11.39,0,0,1,121.83,429.33Z"/><path class="cls-21" d="M121.83,499.48l17.83-9.12a11.39,11.39,0,0,1,16.57,10.14v36a11.39,11.39,0,0,1-6.2,10.14l-17.83,9.12a11.39,11.39,0,0,1-16.57-10.14v-36A11.39,11.39,0,0,1,121.83,499.48Z"/><path class="cls-22" d="M121.83,499.48l17.83-9.12a11.39,11.39,0,0,1,16.57,10.14v36a11.39,11.39,0,0,1-6.2,10.14l-17.83,9.12a11.39,11.39,0,0,1-16.57-10.14v-36A11.39,11.39,0,0,1,121.83,499.48Z"/><text class="cls-23" transform="translate(206.82 459.3)">Co-stimulating domain</text><text class="cls-24" transform="translate(206.82 393.3)">T<tspan class="cls-25" x="18.21" y="0">ransmembrane domain</tspan></text><text class="cls-26" transform="translate(109.62 275.69)">Uniform<tspan class="cls-27" x="175.59" y="0" xml:space="preserve"> T</tspan><tspan class="cls-28" x="210.36" y="0">-cell </tspan><tspan class="cls-29"><tspan x="0" y="47.98">activation domain</tspan></tspan></text><text class="cls-23" transform="translate(206.82 527.3)">Signaling domain</text><line class="cls-30" x1="171" y1="519" x2="191" y2="519"/><polygon class="cls-31" points="183.46 525 190.25 518.5 183.46 512 189.22 512 196 518.5 189.22 525 183.46 525"/><line class="cls-30" x1="171" y1="451" x2="191" y2="451"/><polygon class="cls-31" points="183.46 457 190.25 450.5 183.46 444 189.22 444 196 450.5 189.22 457 183.46 457"/><line class="cls-30" x1="171" y1="385" x2="191" y2="385"/><polygon class="cls-31" points="183.46 391 190.25 384.5 183.46 378 189.22 378 196 384.5 189.22 391 183.46 391"/><path class="cls-32" d="M121.83,429.33l17.83-9.12a11.39,11.39,0,0,1,16.57,10.14v36a11.39,11.39,0,0,1-6.2,10.14L132.2,485.6a11.39,11.39,0,0,1-16.57-10.14v-36A11.39,11.39,0,0,1,121.83,429.33Z"/><path class="cls-33" d="M121.83,360.85l17.83-9.12a11.39,11.39,0,0,1,16.57,10.14v36A11.39,11.39,0,0,1,150,408l-17.83,9.12A11.39,11.39,0,0,1,115.62,407V371A11.39,11.39,0,0,1,121.83,360.85Z"/><path class="cls-34" d="M1187.2,224.42c-.49,7.24-14.69,7.56-15.28,15.51-.27,3.82,3.11,6.35,6.53,8.71s6.86,4.58,6.94,8.09c.09,3.27-3.23,5.52-6.45,8.24s-6.32,5.87-5.2,10.11a7.49,7.49,0,0,0,4,4.83,13.9,13.9,0,0,0,6,1.26c2,0,4-.17,5.65-.23.41,0,.8,0,1.15,0a2,2,0,0,1,.54.07,6.35,6.35,0,0,1,.62.22,5.85,5.85,0,0,1,2.19,1.58,6.26,6.26,0,0,1,1.3,2.46,8,8,0,0,1,.18,2.65,32.16,32.16,0,0,1-1.31,5.78,21.29,21.29,0,0,0-1,5.92,6.61,6.61,0,0,0,2.37,5.09,7.24,7.24,0,0,0,5.81,1.66,17.49,17.49,0,0,0,5.62-2.16,54.19,54.19,0,0,1,5.1-2.71,8.32,8.32,0,0,1,2.38-.58,4.78,4.78,0,0,1,2.39.38,5.43,5.43,0,0,1,1.14.67,5.78,5.78,0,0,1,1,.82,7.68,7.68,0,0,1,1.38,2.18,20,20,0,0,1,.92,2.7c.27.93.51,1.91.76,2.9a22.12,22.12,0,0,0,2,5.59,6.6,6.6,0,0,0,4.35,3.29,6.85,6.85,0,0,0,5.46-1.12,23.75,23.75,0,0,0,4.51-4.06c2.82-3.11,5.38-6.31,8.67-5.83"/><path class="cls-35" d="M1193.91,70.6l15.23-4.23a9,9,0,0,1,11.21,10.46l-5.69,27.82a9,9,0,0,1-6.4,6.86L1193,115.73a9,9,0,0,1-11.21-10.46l5.69-27.82A9,9,0,0,1,1193.91,70.6Z"/><path class="cls-36" d="M1185.65,124.73l15.23-4.23A9,9,0,0,1,1212.08,131l-5.69,27.82a9,9,0,0,1-6.4,6.86l-15.23,4.23a9,9,0,0,1-11.21-10.46l5.69-27.82A9,9,0,0,1,1185.65,124.73Z"/><path class="cls-37" d="M1177.45,179.61l15.23-4.23a9,9,0,0,1,11.21,10.46l-5.69,27.82a9,9,0,0,1-6.4,6.86l-15.23,4.23a9,9,0,0,1-11.21-10.46l5.69-27.82A9,9,0,0,1,1177.45,179.61Z"/><line class="cls-38" x1="1336.89" y1="414.28" x2="1286.51" y2="365.29"/><line class="cls-38" x1="1182.53" y1="413.62" x2="1231.52" y2="363.24"/><polyline class="cls-38" points="1324.37 424.41 1266.45 368.09 1264.93 260.12"/><polyline class="cls-38" points="1193.79 426.44 1250.31 368.32 1248.79 260.34"/></g></svg>